<svg width="739" height="168" viewBox="0 0 739 168" fill="none" xmlns="http://www.w3.org/2000/svg">
  <style type="text/css">
    @media (prefers-color-scheme: dark) {
      .words path { fill: white; }
    }
    .glitch-layer { opacity: .55; pointer-events: none; }
    #gl-r { stroke: #FF3B7F; animation: gl-shift 2.4s steps(1,end) infinite; }
    #gl-g { stroke: #00E7FF; animation: gl-shift 2.4s steps(1,end) infinite .05s; }
    #gl-b { stroke: #B34DFF; animation: gl-shift 2.4s steps(1,end) infinite .10s; }

    @keyframes gl-shift {
      0%, 12%   { transform: translate(0,0); }
      13%, 16%  { transform: translate(-2px,-1px); }
      17%, 20%  { transform: translate(2px,1px); }
      21%, 22%  { transform: translate(-1px,1.5px); }
      23%, 100% { transform: translate(0,0); }
    }
    @media (prefers-reduced-motion: reduce) {
      #gl-r, #gl-g, #gl-b { animation: none; }
    }
  </style>

  <g class="words">
    <path d="M282 71.968H290.32L292.496 85.152V108.192H284.176V83.552L282 71.968ZM310.864 71.712V79.008C309.925 78.752 308.901 78.56 307.792 78.432C306.683 78.304 305.637 78.24 304.656 78.24C302.309 78.24 300.219 78.752 298.384 79.776C296.549 80.8 295.099 82.336 294.032 84.384C293.008 86.3893 292.496 88.864 292.496 91.808L290.576 89.44C290.747 86.88 291.173 84.4907 291.856 82.272C292.581 80.0107 293.563 78.048 294.8 76.384C296.08 74.72 297.637 73.4187 299.472 72.48C301.307 71.5413 303.44 71.072 305.872 71.072C306.725 71.072 307.6 71.136 308.496 71.264C309.392 71.3493 310.181 71.4987 310.864 71.712Z" fill="black"/>
    <path d="M334.442 109.088C330.218 109.088 326.463 108.299 323.178 106.72C319.892 105.099 317.311 102.859 315.433 100C313.556 97.1413 312.618 93.8133 312.618 90.016C312.618 86.2613 313.492 82.976 315.242 80.16C317.034 77.3013 319.487 75.0827 322.602 73.504C325.759 71.8827 329.364 71.072 333.417 71.072C337.471 71.072 340.97 71.9893 343.914 73.824C346.9 75.616 349.204 78.1547 350.826 81.44C352.447 84.7253 353.257 88.5867 353.257 93.024H319.146V86.688H349.098L344.938 89.056C344.81 86.6667 344.234 84.6187 343.21 82.912C342.228 81.2053 340.884 79.904 339.178 79.008C337.514 78.0693 335.53 77.6 333.226 77.6C330.794 77.6 328.66 78.0907 326.826 79.072C325.034 80.0533 323.626 81.44 322.602 83.232C321.578 84.9813 321.066 87.072 321.066 89.504C321.066 92.192 321.663 94.5173 322.858 96.48C324.095 98.4427 325.823 99.9573 328.042 101.024C330.303 102.048 332.97 102.56 336.042 102.56C338.815 102.56 341.652 102.133 344.554 101.28C347.455 100.384 350.015 99.1467 352.233 97.568V103.584C350.015 105.291 347.306 106.635 344.106 107.616C340.948 108.597 337.727 109.088 334.442 109.088Z" fill="black"/>
    <path d="M393.895 108.192L392.487 94.752L394.151 90.08L392.487 85.472L393.895 71.968H402.471L400.551 90.08L402.471 108.192H393.895ZM396.455 90.08C395.644 93.8773 394.3 97.2053 392.423 100.064C390.546 102.923 388.22 105.141 385.447 106.72C382.716 108.299 379.666 109.088 376.295 109.088C372.754 109.088 369.618 108.299 366.887 106.72C364.156 105.099 362.023 102.859 360.487 100C358.951 97.1413 358.183 93.8347 358.183 90.08C358.183 86.2827 358.951 82.976 360.487 80.16C362.023 77.3013 364.156 75.0827 366.887 73.504C369.618 71.8827 372.754 71.072 376.295 71.072C379.666 71.072 382.716 71.8613 385.447 73.44C388.22 75.0187 390.546 77.2373 392.423 80.096C394.343 82.912 395.687 86.24 396.455 90.08ZM366.631 90.08C366.631 92.512 367.122 94.6667 368.103 96.544C369.127 98.3787 370.514 99.8293 372.263 100.896C374.012 101.92 376.018 102.432 378.279 102.432C380.583 102.432 382.716 101.92 384.679 100.896C386.642 99.8293 388.37 98.3787 389.863 96.544C391.399 94.6667 392.615 92.512 393.511 90.08C392.615 87.648 391.399 85.5147 389.863 83.68C388.37 81.8027 386.642 80.352 384.679 79.328C382.716 78.2613 380.583 77.728 378.279 77.728C376.018 77.728 374.012 78.2613 372.263 79.328C370.514 80.352 369.127 81.8027 368.103 83.68C367.122 85.5147 366.631 87.648 366.631 90.08Z" fill="black"/>
    <path d="M450.478 93.92C450.051 96.9067 448.878 99.552 446.958 101.856C445.038 104.117 442.585 105.888 439.598 107.168C436.611 108.448 433.283 109.088 429.614 109.088C425.433 109.088 421.742 108.299 418.542 106.72C415.385 105.099 412.91 102.859 411.118 100C409.326 97.1413 408.43 93.8347 408.43 90.08C408.43 86.3253 409.326 83.0187 411.118 80.16C412.91 77.3013 415.385 75.0827 418.542 73.504C421.742 71.8827 425.433 71.072 429.614 71.072C433.283 71.072 436.611 71.712 439.598 72.992C442.585 74.272 445.038 76.064 446.958 78.368C448.878 80.6293 450.051 83.2747 450.478 86.304H442.094C441.497 83.5733 440.067 81.44 437.806 79.904C435.545 78.368 432.814 77.6 429.614 77.6C427.054 77.6 424.814 78.112 422.894 79.136C420.974 80.1173 419.481 81.5467 418.414 83.424C417.39 85.2587 416.878 87.4773 416.878 90.08C416.878 92.64 417.39 94.8587 418.414 96.736C419.481 98.6133 420.974 100.064 422.894 101.088C424.814 102.069 427.054 102.56 429.614 102.56C432.857 102.56 435.609 101.771 437.87 100.192C440.131 98.6133 441.539 96.5227 442.094 93.92H450.478Z" fill="black"/>
    <path d="M452.32 78.368V74.592L460.064 72.608L463.52 62.496H468.383V71.968H485.215V78.368H468.383V94.048C468.383 97.0773 469.023 99.2107 470.303 100.448C471.626 101.643 473.76 102.24 476.704 102.24C478.581 102.24 480.245 102.048 481.695 101.664C483.146 101.237 484.533 100.64 485.855 99.872V106.72C484.746 107.275 483.168 107.808 481.12 108.32C479.114 108.832 477.045 109.088 474.911 109.088C471.37 109.088 468.511 108.512 466.335 107.36C464.159 106.165 462.56 104.544 461.536 102.496C460.554 100.405 460.064 98.016 460.064 95.328V78.368H452.32Z" fill="black"/>
    <path d="M490.15 82.272H505.062V89.12H490.15V82.272Z" fill="black"/>
    <path d="M513.228 58.912H521.548V108.192H513.228V58.912ZM535.948 71.072C539.361 71.072 542.263 71.7547 544.652 73.12C547.041 74.4853 548.855 76.448 550.092 79.008C551.372 81.5253 552.012 84.576 552.012 88.16V108.192H543.692V89.504C543.692 85.7067 542.796 82.848 541.004 80.928C539.255 78.9653 536.673 77.984 533.26 77.984C530.913 77.984 528.844 78.5173 527.052 79.584C525.303 80.608 523.937 82.0587 522.956 83.936C522.017 85.8133 521.548 88.0107 521.548 90.528L518.604 88.928C518.988 85.1733 519.969 81.9733 521.548 79.328C523.127 76.6827 525.153 74.656 527.628 73.248C530.103 71.7973 532.876 71.072 535.948 71.072Z" fill="black"/>
    <path d="M580.385 109.088C575.99 109.088 572.129 108.299 568.801 106.72C565.516 105.099 562.934 102.859 561.057 100C559.222 97.1413 558.305 93.8347 558.305 90.08C558.305 86.2827 559.222 82.976 561.057 80.16C562.934 77.3013 565.516 75.0827 568.801 73.504C572.129 71.8827 575.99 71.072 580.385 71.072C584.78 71.072 588.62 71.8827 591.905 73.504C595.233 75.0827 597.814 77.3013 599.649 80.16C601.526 82.976 602.465 86.2827 602.465 90.08C602.465 93.8347 601.526 97.1413 599.649 100C597.814 102.859 595.233 105.099 591.905 106.72C588.62 108.299 584.78 109.088 580.385 109.088ZM580.385 102.56C583.201 102.56 585.612 102.048 587.617 101.024C589.665 100 591.244 98.5707 592.353 96.736C593.462 94.8587 594.017 92.64 594.017 90.08C594.017 87.52 593.462 85.3227 592.353 83.488C591.244 81.6107 589.665 80.16 587.617 79.136C585.612 78.112 583.201 77.6 580.385 77.6C577.612 77.6 575.201 78.112 573.153 79.136C571.105 80.16 569.526 81.6107 568.417 83.488C567.308 85.3227 566.753 87.52 566.753 90.08C566.753 92.64 567.308 94.8587 568.417 96.736C569.526 98.5707 571.105 100 573.153 101.024C575.201 102.048 577.612 102.56 580.385 102.56Z" fill="black"/>
    <path d="M629.26 109.088C624.865 109.088 621.004 108.299 617.676 106.72C614.391 105.099 611.809 102.859 609.932 100C608.097 97.1413 607.18 93.8347 607.18 90.08C607.18 86.2827 608.097 82.976 609.932 80.16C611.809 77.3013 614.391 75.0827 617.676 73.504C621.004 71.8827 624.865 71.072 629.26 71.072C633.655 71.072 637.495 71.8827 640.78 73.504C644.108 75.0827 646.689 77.3013 648.524 80.16C650.401 82.976 651.34 86.2827 651.34 90.08C651.34 93.8347 650.401 97.1413 648.524 100C646.689 102.859 644.108 105.099 640.78 106.72C637.495 108.299 633.655 109.088 629.26 109.088ZM629.26 102.56C632.076 102.56 634.487 102.048 636.492 101.024C638.54 100 640.119 98.5707 641.228 96.736C642.337 94.8587 642.892 92.64 642.892 90.08C642.892 87.52 642.337 85.3227 641.228 83.488C640.119 81.6107 638.54 80.16 636.492 79.136C634.487 78.112 632.076 77.6 629.26 77.6C626.487 77.6 624.076 78.112 622.028 79.136C619.98 80.16 618.401 81.6107 617.292 83.488C616.183 85.3227 615.628 87.52 615.628 90.08C615.628 92.64 616.183 94.8587 617.292 96.736C618.401 98.5707 619.98 100 622.028 101.024C624.076 102.048 626.487 102.56 629.26 102.56Z" fill="black"/>
    <path d="M666.423 100.96L663.991 100.064L687.031 71.968H696.631L665.847 108.192H658.103V58.912H666.423V100.96ZM676.727 90.272L682.551 85.024L697.719 108.192H687.927L676.727 90.272Z" fill="black"/>
    <path d="M738.669 97.184C738.669 99.616 737.987 101.728 736.621 103.52C735.256 105.312 733.187 106.699 730.414 107.68C727.64 108.619 724.163 109.088 719.982 109.088C715.672 109.088 711.939 108.555 708.781 107.488C705.624 106.379 703.171 104.843 701.422 102.88C699.715 100.875 698.797 98.5707 698.669 95.968H707.117C707.373 97.3333 708.056 98.5493 709.165 99.616C710.317 100.64 711.811 101.429 713.646 101.984C715.523 102.539 717.656 102.816 720.046 102.816C723.502 102.816 726.104 102.411 727.854 101.6C729.603 100.747 730.478 99.4667 730.478 97.76C730.478 96.608 729.88 95.7333 728.685 95.136C727.533 94.5387 725.336 94.0907 722.094 93.792L714.99 93.152C711.15 92.8107 708.12 92.128 705.901 91.104C703.683 90.0373 702.104 88.7573 701.165 87.264C700.227 85.728 699.758 84.1067 699.758 82.4C699.758 79.9253 700.525 77.856 702.061 76.192C703.597 74.528 705.731 73.2693 708.461 72.416C711.192 71.52 714.371 71.072 717.997 71.072C721.752 71.072 725.102 71.6053 728.046 72.672C730.99 73.696 733.336 75.1467 735.086 77.024C736.835 78.8587 737.816 80.992 738.03 83.424H729.582C729.411 82.4427 728.899 81.504 728.046 80.608C727.235 79.6693 725.976 78.9013 724.27 78.304C722.606 77.664 720.366 77.344 717.549 77.344C714.563 77.344 712.216 77.728 710.509 78.496C708.845 79.264 708.013 80.3947 708.013 81.888C708.013 82.8267 708.525 83.6373 709.549 84.32C710.573 84.96 712.472 85.408 715.246 85.664L724.397 86.496C728.067 86.8373 730.926 87.4987 732.974 88.48C735.064 89.4187 736.536 90.6347 737.389 92.128C738.243 93.6213 738.669 95.3067 738.669 97.184Z" fill="black"/>
  </g>
  <g class="logo">
    <g id="gl-r" class="glitch-layer">
      <use href="#hookA" stroke-width="32" />
      <use href="#hookB" stroke-width="32" />
    </g>
    <g id="gl-g" class="glitch-layer">
      <use href="#hookA" stroke-width="32" />
      <use href="#hookB" stroke-width="32" />
    </g>
    <g id="gl-b" class="glitch-layer">
      <use href="#hookA" stroke-width="32" />
      <use href="#hookB" stroke-width="32" />
    </g>
    <use href="#hookA" stroke="url(#paint0_linear_6_2)" stroke-width="32"/>
    <use href="#hookB" stroke="url(#paint1_linear_6_2)" stroke-width="32"/>
  </g>

  <defs>
    <linearGradient id="paint0_linear_6_2" x1="-30" y1="176" x2="306" y2="-96" gradientUnits="userSpaceOnUse">
      <stop stop-color="#DB4ADB"/><stop offset="0.5" stop-color="#9B7AEF"/><stop offset="1" stop-color="#6FC5FF"/>
    </linearGradient>
    <linearGradient id="paint1_linear_6_2" x1="-30" y1="176" x2="306" y2="-96" gradientUnits="userSpaceOnUse">
      <stop stop-color="#DB4ADB"/><stop offset="0.5" stop-color="#9B7AEF"/><stop offset="1" stop-color="#6FC5FF"/>
    </linearGradient>
    <path id="hookA" d="M18 50C60.6667 92.6667 103.333 92.6667 146 50C188.667 7.33333 215.333 7.33333 226 50"
          fill="none" stroke-linecap="round" stroke-linejoin="round"/>
    <path id="hookB" d="M226 50V86C226 102.974 219.257 119.253 207.255 131.255C195.252 143.257 178.974 150 162 150C145.026 150 128.747 143.257 116.745 131.255C104.743 119.253 98 102.974 98 86V50"
          fill="none" stroke-linecap="round" stroke-linejoin="round"/>
  </defs>
</svg>
